<svg xmlns="http://www.w3.org/2000/svg" version="1.1" id="Ebene_1" x="0" y="0" xml:space="preserve" viewBox="0 0 1289.5 355"><style type="text/css" id="style2">.st0{fill:#004f9f}.st1{enable-background:new}</style><g id="Ebene_1_1_" transform="translate(-89.4 -127.6)"><g id="g26"><g id="g22"><path class="st0" d="M89.4 467.7V127.6h340.2v340.2zm331.7-8.5V136.1H98v323.2h323.1z" id="path4" fill="#004f9f"/><g id="g20"><g id="g8"><path class="st0" d="M233.9 447.9v-103l-13 102.9h-14.1l-14-104.1v104.1h-23.9V282.1h33.9l11 89.2 10.3-89.1h33.3v165.7z" id="path6" fill="#004f9f"/></g><g id="g12"><path class="st0" d="M110.7 447.9V282.2h46.6v32.1h-19.6v33h15.9v29.2h-15.9v41.8h19.6V448z" id="path10" fill="#004f9f"/></g><g id="g18"><g id="g16"><path class="st0" d="M320.9 282.1H279l-12.5 165.8h25.3l2.6-34h11.9l2.3 34h26.2zM296 393.7l4.4-84.4 4.4 84.4z" id="path14" fill="#004f9f"/></g></g></g></g><path class="st0" d="M408.2 360.2v87.7h-16.8l-.4-7.2-.1.2c-4.7 5.4-11.5 8.2-19.2 8.2-11.9 0-29.2-6.2-29.2-27.7V305.9c0-21.5 17.3-27.7 32.8-27.7 15.7 0 33 6.2 33 27.7v34.9h-25.7v-30c0-8.3-2.4-9.9-6.5-9.9-4.5 0-6.7 1.6-6.7 9.9v105.7c0 8.3 2.2 9.9 6.7 9.9 4 0 6.5-1.6 6.5-9.9v-33.8h-5.9v-22.5z" id="path24" fill="#004f9f"/></g></g><g id="EN" transform="translate(-89.4 -127.6)"><g class="st1" id="g75"><path d="M532.8 373.9v-50l-15.9 50h-6.7l-15.7-50v50h-6.6v-56.3h11.6l14.3 47.3 14.4-47.3h11.5v56.3z" id="path29"/><path d="M572.7 373.9l-.3-5.7h-.2c-1 2.3-2.3 4-3.9 5-1.6 1.1-3.7 1.6-6.2 1.6-3.5 0-6.1-1-7.9-3.1-1.8-2.1-2.8-5.1-2.8-9 0-2.3.3-4.3 1-6 .7-1.7 1.7-3 3.1-4.1 1.4-1.1 3.3-1.8 5.5-2.3 2.2-.5 5-.7 8.1-.7h2.9v-2.5c0-.8 0-1.6-.1-2.6s-.3-1.9-.7-2.8c-.4-.9-1-1.6-1.9-2.2-.9-.6-2.1-.9-3.8-.9-2 0-3.6.5-4.7 1.6s-1.7 2.6-1.7 4.5v1h-6.9c.1-4.1 1.2-7.1 3.4-9 2.2-1.9 5.5-2.9 10-2.9 2 0 3.8.2 5.4.7 1.6.4 2.9 1.1 4 2.1s1.9 2.2 2.5 3.7c.6 1.5.9 3.3.9 5.5v20.3c0 1.2.1 2.5.2 4 .1 1.4.3 2.8.6 4h-6.5zm-.5-17v-1c0-.4 0-.9-.1-1.6-.6-.1-1-.1-1.2-.1h-.8c-1.5 0-3 .1-4.5.2s-2.8.5-3.9 1c-1.2.5-2.1 1.3-2.8 2.4-.7 1.1-1.1 2.5-1.1 4.4 0 2.3.6 4 1.7 5.3 1.1 1.2 2.7 1.9 4.6 1.9 1.7 0 3-.4 4-1.2 1-.8 1.9-1.9 2.4-3.1.6-1.2 1-2.6 1.2-4.1.4-1.4.5-2.8.5-4.1z" id="path31"/><path d="M612.2 373.9v-26.1c0-1.1-.1-2.2-.2-3.3-.1-1.1-.4-2-.9-2.8-.5-.8-1.1-1.5-2-2-.9-.5-2-.8-3.4-.8-1.5 0-2.7.3-3.7.8s-1.8 1.2-2.5 2.1c-.6.9-1.1 1.9-1.4 3.1-.3 1.2-.4 2.4-.4 3.7v25.3H591v-34.3l-.2-5.1h6.8v5.1c.6-1 1.2-1.9 1.9-2.7.7-.8 1.5-1.3 2.3-1.8.9-.5 1.8-.8 2.8-1 1-.2 2.2-.3 3.5-.3 2.2 0 4 .3 5.4 1 1.4.7 2.5 1.6 3.3 2.7.8 1.2 1.3 2.5 1.6 4.1.3 1.6.4 3.3.4 5.2V374h-6.6z" id="path33"/><path d="M650.8 373.9v-4.8h-.2c-1.1 1.8-2.5 3.1-4.2 4-1.7.9-3.7 1.3-6.1 1.3-6.8 0-10.2-3.6-10.2-10.9v-29.1h6.6v28.7c0 .9.2 1.8.5 2.5.3.8.8 1.4 1.3 2 .6.5 1.3 1 2.1 1.3.8.3 1.7.5 2.6.5 1.1 0 2.1-.2 3-.6.9-.4 1.7-1 2.3-1.8.6-.8 1.2-1.7 1.5-2.8.3-1.1.6-2.3.6-3.6v-26.1h6.7v34.3l.2 5.1z" id="path35"/><path d="M676.6 339.5v34.3H670v-34.3h-6v-5.1h6v-5.6c0-2 .2-3.7.5-5.2s1-2.7 1.8-3.6c.9-1 2-1.7 3.4-2.1 1.4-.5 3.2-.7 5.4-.7.6 0 1.1 0 1.6.1.5 0 1 .1 1.6.2v4.7c-.2-.1-.5-.1-.7-.1h-.7c-1.6 0-2.8.2-3.6.6-.9.4-1.5 1-1.8 1.7-.3.7-.6 1.6-.7 2.7-.1 1-.1 2.2-.1 3.5v3.8h7.7v5.1z" id="path37"/><path d="M711.3 373.9l-.3-5.7h-.2c-1 2.3-2.3 4-3.9 5-1.6 1.1-3.7 1.6-6.2 1.6-3.5 0-6.1-1-7.9-3.1-1.8-2.1-2.8-5.1-2.8-9 0-2.3.3-4.3 1-6 .7-1.7 1.7-3 3.1-4.1 1.4-1.1 3.3-1.8 5.5-2.3 2.2-.5 5-.7 8.1-.7h2.9v-2.5c0-.8 0-1.6-.1-2.6s-.3-1.9-.7-2.8c-.4-.9-1-1.6-1.9-2.2-.9-.6-2.1-.9-3.8-.9-2 0-3.6.5-4.7 1.6s-1.7 2.6-1.7 4.5v1h-6.9c.1-4.1 1.2-7.1 3.4-9 2.2-2 5.5-2.9 10-2.9 2 0 3.8.2 5.4.7 1.6.4 2.9 1.1 4 2.1s1.9 2.2 2.5 3.7c.6 1.5.9 3.3.9 5.5v20.3c0 1.2.1 2.5.2 4 .1 1.4.3 2.8.6 4h-6.5zm-.4-17v-1c0-.4 0-.9-.1-1.6-.6-.1-1-.1-1.2-.1h-.8c-1.5 0-3 .1-4.5.2s-2.8.5-3.9 1c-1.2.5-2.1 1.3-2.8 2.4-.7 1.1-1.1 2.5-1.1 4.4 0 2.3.6 4 1.7 5.3 1.1 1.3 2.7 1.9 4.6 1.9 1.7 0 3-.4 4-1.2 1-.8 1.9-1.9 2.4-3.1.5-1.2 1-2.6 1.2-4.1.2-1.5.5-2.8.5-4.1z" id="path39"/><path d="M756.3 366.4c-.6 1.7-1.4 3.2-2.6 4.4-1.2 1.2-2.6 2.2-4.2 2.9-1.6.7-3.6 1-5.8 1-2.1 0-3.9-.3-5.4-.8-1.5-.5-2.8-1.2-3.8-2.2-1-.9-1.9-2-2.5-3.3-.6-1.3-1.1-2.7-1.4-4.2-.3-1.5-.6-3.1-.7-4.7-.1-1.6-.2-3.3-.2-5 0-3.9.3-7.1.8-9.8.5-2.7 1.3-4.8 2.5-6.4 1.2-1.6 2.7-2.8 4.6-3.5 1.9-.7 4.2-1.1 7-1.1 4 0 7.1 1.1 9.2 3.2 2.1 2.1 3.1 5.2 3.1 9.2v1.1h-6.6c0-2.9-.5-5-1.5-6.3-1-1.3-2.6-2-4.7-2-1.7 0-3 .4-4 1.2-1 .8-1.8 1.9-2.3 3.3-.5 1.4-.9 3-1.1 4.9-.2 1.9-.3 3.8-.3 5.9 0 5.2.6 9 1.8 11.4 1.2 2.4 3 3.6 5.6 3.6 1.3 0 2.3-.2 3.2-.7.9-.5 1.6-1.1 2.1-1.9.5-.8.9-1.7 1.1-2.7.2-1 .3-2.1.3-3.2h6.7c0 2.1-.3 4-.9 5.7z" id="path41"/><path d="M781.7 374.1c-1 .1-2.1.1-3.1.1-1.4 0-2.7-.1-3.8-.3-1.1-.2-2-.6-2.8-1.1-.8-.5-1.3-1.3-1.7-2.3-.4-1-.6-2.3-.6-3.8v-27.1H763v-5.1h6.6v-7.6l6.6-2.9v10.5h8.3v5.1h-8.3v23.3c0 1.1.1 2 .2 2.8.1.8.4 1.4.8 1.9s1 .9 1.7 1.2c.7.3 1.7.4 3 .4.5 0 1 0 1.4-.1.4 0 .9-.1 1.4-.2v4.9c-1 .1-2 .3-3 .3z" id="path43"/><path d="M811.2 373.9v-4.8h-.2c-1.1 1.8-2.5 3.1-4.2 4-1.7.9-3.7 1.3-6.1 1.3-6.8 0-10.2-3.6-10.2-10.9v-29.1h6.6v28.7c0 .9.2 1.8.5 2.5.3.8.8 1.4 1.3 2 .6.5 1.3 1 2.1 1.3.8.3 1.7.5 2.6.5 1.1 0 2.1-.2 3-.6.9-.4 1.7-1 2.3-1.8.6-.8 1.2-1.7 1.5-2.8.3-1.1.6-2.3.6-3.6v-26.1h6.7v34.3l.2 5.1z" id="path45"/><path d="M846.8 340.6c-.6 0-1.2-.1-1.6-.1-2.8 0-4.9.7-6.5 2.2-1.6 1.5-2.3 3.6-2.3 6.3v24.7h-6.7v-34.3l-.2-5.1h6.7v6.1c.5-1.3 1.1-2.3 1.7-3.2.6-.9 1.3-1.5 2.1-2s1.7-.9 2.8-1.1c1.1-.2 2.4-.3 3.9-.3h.9c.4 0 .6.1.8.2v6.6c-.5.1-1 .1-1.6 0z" id="path47"/><path d="M854.7 324.4v-6.9h7.2v6.9zm.2 49.5v-39.4h6.7v39.4z" id="path49"/><path d="M893.8 373.9v-26.1c0-1.1-.1-2.2-.2-3.3-.1-1.1-.4-2-.9-2.8-.5-.8-1.1-1.5-2-2-.9-.5-2-.8-3.4-.8-1.5 0-2.7.3-3.7.8s-1.8 1.2-2.5 2.1c-.7.9-1.1 1.9-1.4 3.1-.3 1.2-.4 2.4-.4 3.7v25.3h-6.7v-34.3l-.2-5.1h6.8v5.1c.6-1 1.2-1.9 1.9-2.7.7-.8 1.5-1.3 2.3-1.8.8-.5 1.8-.8 2.8-1 1-.2 2.2-.3 3.5-.3 2.2 0 4 .3 5.4 1 1.4.7 2.5 1.6 3.3 2.7.8 1.1 1.3 2.5 1.6 4.1.3 1.6.4 3.3.4 5.2V374h-6.6z" id="path51"/><path d="M938.9 376.6c0 4.3-1.1 7.5-3.3 9.5-2.2 2-5.6 3-10.1 3-1.7 0-3.3-.2-4.9-.5-1.6-.3-2.9-.9-4.2-1.7-1.2-.8-2.2-1.8-2.9-3.1-.7-1.3-1.1-2.9-1.1-4.8v-.6h7.2c.1 1.8.6 3.2 1.7 4.2s2.6 1.4 4.6 1.4c1.7 0 2.9-.3 3.8-.9.9-.6 1.5-1.3 1.9-2.3.4-1 .6-2 .6-3.3 0-1.3.1-2.6.1-3.9V369c-.8 1.5-1.9 2.7-3.5 3.5-1.6.8-3.3 1.2-5.3 1.2-1.9 0-3.5-.3-4.9-.9-1.4-.6-2.5-1.4-3.4-2.4-.9-1-1.7-2.1-2.3-3.5-.6-1.3-1-2.7-1.3-4.2-.3-1.5-.5-3-.6-4.6-.1-1.6-.2-3.1-.2-4.6 0-6.7 1-11.6 3.1-14.9 2.1-3.2 5.3-4.8 9.6-4.8 2.1 0 3.8.4 5.3 1.3s2.7 2.2 3.7 4.1v-4.8h6.4zm-6.2-21.9v-3.1c0-1.1-.1-2.3-.2-3.4-.1-1.2-.3-2.3-.6-3.4s-.7-2.1-1.3-2.9c-.6-.8-1.3-1.5-2.2-2-.9-.5-2-.8-3.3-.8-1.2 0-2.3.2-3.1.6-.8.4-1.6 1-2.1 1.7-.6.7-1 1.6-1.3 2.5-.3 1-.6 1.9-.7 3-.2 1-.2 2.1-.3 3.1 0 1-.1 2-.1 2.9v3c0 1.1.1 2.3.2 3.4s.3 2.3.6 3.4.7 2.1 1.3 2.9c.6.8 1.3 1.5 2.2 2 .9.5 2 .8 3.3.8 1.2 0 2.3-.2 3.1-.6.8-.4 1.6-1 2.1-1.7s1-1.5 1.3-2.5c.3-1 .5-1.9.7-2.9.2-1 .2-2 .3-3.1.1-1 .1-1.9.1-2.9z" id="path53"/><path d="M1001 359.6c0 2.3-.4 4.4-1.2 6.3-.8 1.9-2 3.5-3.5 4.8-1.5 1.3-3.3 2.3-5.5 3-2.1.7-4.6 1.1-7.2 1.1-5.4 0-9.6-1.3-12.4-4-2.8-2.7-4.2-6.6-4.2-11.7v-2.4h7.1v1.6c0 1.6.2 3 .7 4.3.4 1.3 1.1 2.4 1.9 3.3.8.9 1.9 1.6 3 2.1s2.5.7 4 .7 2.8-.2 4-.6c1.2-.4 2.3-1 3.1-1.8.9-.8 1.5-1.7 2-2.8.5-1.1.7-2.3.7-3.7 0-1-.2-1.9-.5-2.7-.3-.8-.8-1.7-1.3-2.4s-1.2-1.4-2-2c-.8-.6-1.5-1.1-2.3-1.5l-8-4.2c-2-1-3.7-2.1-5.1-3.2-1.4-1.1-2.6-2.3-3.5-3.5-.9-1.2-1.6-2.5-2-3.9-.4-1.4-.6-2.9-.6-4.6 0-2.3.4-4.4 1.2-6.2.8-1.8 1.9-3.4 3.4-4.7 1.5-1.3 3.2-2.3 5.3-3 2.1-.7 4.4-1 7-1 5 0 8.8 1.3 11.5 3.8 2.6 2.6 3.9 6.3 3.9 11.4v1.3H993v-1c0-2.8-.7-5.1-2.1-6.7-1.4-1.6-3.5-2.5-6.4-2.5-2.8 0-5 .7-6.6 2.1-1.6 1.4-2.4 3.4-2.4 6 0 1.4.3 2.7 1 3.9.6 1.1 1.5 2.1 2.5 3 1 .9 2.1 1.7 3.4 2.3 1.3.6 2.5 1.3 3.6 1.8 1 .5 2 1 2.8 1.5.9.5 1.7 1 2.3 1.4.7.4 1.3.8 1.7 1.2.5.3.8.6 1 .7 1.3 1 2.4 2 3.3 3 .9 1 1.6 1.9 2.1 3s.9 2.1 1.2 3.2c.5.7.6 1.9.6 3.3z" id="path55"/><path d="M1021.7 388.8h-6.6l4.5-14.8-13.4-39.5h7.4l9.6 32 9.5-32h6.9z" id="path57"/><path d="M1071.3 363.4c0 3.6-1.2 6.4-3.6 8.3-2.4 1.9-5.8 2.9-10.2 2.9-4.4 0-7.8-1-10.1-3s-3.4-5-3.4-8.9v-.7h6.9v.7c0 4.5 2.2 6.8 6.7 6.8 2.3 0 4-.5 5.3-1.5 1.3-1 1.9-2.4 1.9-4.1 0-1.1-.3-2.1-.8-2.9-.5-.8-1.4-1.5-2.6-2.1l-9.9-5.1c-2.3-1.2-3.9-2.5-4.9-4-1-1.5-1.5-3.2-1.5-5.2s.4-3.6 1.1-5c.7-1.4 1.7-2.5 3-3.3 1.3-.8 2.7-1.5 4.3-1.8 1.6-.3 3.3-.6 5-.6 4 0 7.1.9 9.3 2.6 2.2 1.7 3.3 4.4 3.3 7.8v.8h-6.6v-.3-.2c0-1.9-.6-3.4-1.7-4.4-1.1-1-2.8-1.5-4.9-1.5-2 0-3.5.5-4.6 1.4-1.1.9-1.6 2.2-1.6 3.8 0 .6.1 1.1.2 1.5.1.4.4.9.8 1.3s.9.8 1.6 1.3c.7.4 1.5.9 2.6 1.4l8.4 4.2c3.9 2.1 6 5.3 6 9.8z" id="path59"/><path d="M1093.6 374.1c-1 .1-2.1.1-3.1.1-1.4 0-2.7-.1-3.8-.3-1.1-.2-2-.6-2.8-1.1-.8-.5-1.3-1.3-1.7-2.3-.4-1-.6-2.3-.6-3.8v-27.1h-6.6v-5.1h6.6v-7.6l6.6-2.9v10.5h8.3v5.1h-8.3v23.3c0 1.1.1 2 .2 2.8.1.8.4 1.4.8 1.9s1 .9 1.7 1.2c.7.3 1.7.4 3 .4.5 0 1 0 1.4-.1.4 0 .9-.1 1.4-.2v4.9c-1.1.1-2.1.3-3.1.3z" id="path61"/><path d="M1108.4 356.2v2.8c0 1 .1 2 .3 3 .2 1 .4 1.9.7 2.8.3.9.7 1.7 1.3 2.4.6.7 1.3 1.2 2.1 1.7.9.4 1.9.6 3.2.6 4.3 0 6.7-2.5 7.2-7.6h7c-.2 8.6-4.9 12.9-14.1 12.9-2.3 0-4.3-.3-5.9-.8-1.6-.5-3-1.3-4.1-2.2-1.1-.9-1.9-2.1-2.6-3.4-.7-1.3-1.1-2.8-1.4-4.3-.3-1.5-.5-3.3-.6-5.1-.1-1.8-.1-3.6-.1-5.6 0-3.6.3-6.6.8-9.2.5-2.5 1.4-4.6 2.6-6.2 1.2-1.6 2.7-2.8 4.5-3.5 1.8-.7 4.1-1.1 6.7-1.1 3.1 0 5.6.5 7.5 1.4 1.9.9 3.4 2.2 4.4 3.9 1 1.7 1.8 3.7 2.1 6 .4 2.3.5 4.8.5 7.5v4zm15.4-5.7c0-1.4-.1-2.8-.2-4.2-.2-1.4-.5-2.7-1.1-3.8-.5-1.1-1.3-2.1-2.4-2.8-1-.7-2.4-1.1-4.1-1.1-1.2 0-2.2.2-3 .6-.8.4-1.5.9-2.1 1.6-.6.7-1 1.4-1.4 2.3-.3.9-.6 1.8-.8 2.7-.2 1-.3 1.9-.3 2.9s-.1 1.9-.1 2.7h15.4v-.9z" id="path63"/><path d="M1180 373.9v-28.6c0-2-.5-3.6-1.5-4.8-1-1.1-2.6-1.7-4.9-1.7-1.4 0-2.5.2-3.4.7-.9.5-1.5 1.1-2 1.9-.5.8-.8 1.7-1 2.8-.2 1.1-.2 2.2-.2 3.4V374h-6.6v-27c0-1-.1-2-.2-2.9-.1-.9-.4-1.8-.8-2.6-.4-.7-1-1.4-1.8-1.8-.8-.4-1.8-.7-3-.7-1.5 0-2.7.2-3.6.7-.9.5-1.7 1.1-2.2 1.9-.5.8-.9 1.7-1.1 2.8-.2 1.1-.3 2.2-.3 3.4v26.3h-6.7v-34.3l-.2-5.1h6.6v4.9c.9-1.9 2.1-3.3 3.8-4.3 1.7-1 3.6-1.5 5.9-1.5 1 0 2 .1 2.9.3 1 .2 1.8.5 2.7.9.9.4 1.6.9 2.2 1.6.6.7 1.2 1.5 1.5 2.4 1.1-1.9 2.5-3.3 4.2-4 1.7-.7 3.7-1.1 5.9-1.1 3.3 0 5.8.9 7.6 2.8 1.8 1.9 2.7 4.4 2.7 7.8v29.7h-6.5z" id="path65"/><path d="M1222.9 363.4c0 3.6-1.2 6.4-3.6 8.3-2.4 1.9-5.8 2.9-10.2 2.9-4.4 0-7.8-1-10.1-3s-3.4-5-3.4-8.9v-.7h6.9v.7c0 4.5 2.2 6.8 6.7 6.8 2.3 0 4-.5 5.3-1.5 1.3-1 1.9-2.4 1.9-4.1 0-1.1-.3-2.1-.8-2.9-.5-.8-1.4-1.5-2.6-2.1l-9.9-5.1c-2.3-1.2-3.9-2.5-4.9-4-1-1.5-1.5-3.2-1.5-5.2s.4-3.6 1.1-5c.7-1.4 1.7-2.5 3-3.3 1.3-.8 2.7-1.5 4.3-1.8 1.6-.3 3.3-.6 5-.6 4 0 7.1.9 9.3 2.6 2.2 1.7 3.3 4.4 3.3 7.8v.8h-6.6v-.3-.2c0-1.9-.6-3.4-1.7-4.4-1.1-1-2.8-1.5-4.9-1.5-2 0-3.5.5-4.6 1.4-1.1.9-1.6 2.2-1.6 3.8 0 .6.1 1.1.2 1.5.1.4.4.9.8 1.3s.9.8 1.6 1.3c.7.4 1.5.9 2.6 1.4l8.4 4.2c3.9 2.1 6 5.3 6 9.8z" id="path67"/><path d="M1257.1 339.5v34.3h-6.6v-34.3h-6v-5.1h6v-5.6c0-2 .2-3.7.5-5.2s1-2.7 1.8-3.6c.9-1 2-1.7 3.4-2.1 1.4-.5 3.2-.7 5.4-.7.6 0 1.1 0 1.6.1.5 0 1 .1 1.6.2v4.7c-.2-.1-.5-.1-.7-.1h-.7c-1.6 0-2.8.2-3.6.6-.9.4-1.5 1-1.8 1.7-.3.7-.6 1.6-.7 2.7-.1 1-.1 2.2-.1 3.5v3.8h7.7v5.1z" id="path69"/><path d="M1300 354.5c0 2.9-.2 5.6-.5 8.1s-1.1 4.6-2.1 6.5c-1 1.9-2.6 3.3-4.6 4.3-2 1.1-4.7 1.6-8.1 1.6-2.3 0-4.2-.3-5.8-.8-1.6-.5-3-1.2-4-2.2-1-1-1.9-2-2.6-3.3-.7-1.3-1.1-2.7-1.5-4.3-.3-1.5-.6-3.2-.6-5-.1-1.8-.1-3.6-.1-5.5 0-2.9.2-5.6.5-8.1s1-4.7 2-6.6c1-1.9 2.5-3.3 4.5-4.4 2-1.1 4.6-1.6 8-1.6 2.3 0 4.2.2 5.9.7 1.6.5 3 1.2 4.1 2.1 1.1.9 2 2 2.7 3.3.7 1.3 1.2 2.7 1.5 4.3.3 1.6.6 3.3.7 5.1-.1 1.9 0 3.8 0 5.8zm-6.9-1.8v-3.1c0-1.1-.1-2.1-.3-3.2-.2-1-.4-2-.7-3-.3-1-.8-1.8-1.4-2.5-.6-.7-1.3-1.3-2.2-1.7-.9-.4-2-.6-3.3-.6-1.4 0-2.6.2-3.5.7-.9.5-1.7 1.1-2.3 1.8-.6.8-1.1 1.7-1.4 2.7-.3 1-.6 2.1-.7 3.2-.1 1.1-.2 2.3-.2 3.4V357.6c0 1.3.1 2.5.2 3.7.1 1.2.4 2.3.7 3.3.3 1 .8 1.9 1.4 2.6.6.7 1.4 1.3 2.3 1.7.9.4 2.1.6 3.4.6 1.3 0 2.5-.2 3.5-.7 1-.5 1.7-1.1 2.3-1.9.6-.8 1.1-1.7 1.4-2.8.3-1.1.6-2.3.7-3.5.1-1.3.2-2.6.2-3.9-.1-1.4-.1-2.7-.1-4z" id="path71"/><path d="M1327.7 340.6c-.6 0-1.2-.1-1.6-.1-2.8 0-4.9.7-6.5 2.2-1.6 1.5-2.3 3.6-2.3 6.3v24.7h-6.7v-34.3l-.2-5.1h6.7v6.1c.5-1.3 1.1-2.3 1.7-3.2.6-.9 1.3-1.5 2.1-2s1.7-.9 2.8-1.1c1.1-.2 2.4-.3 3.9-.3h.9c.4 0 .6.1.8.2v6.6c-.5.1-1 .1-1.6 0z" id="path73"/></g><g class="st1" id="g125"><path d="M520.8 427.1c0 3-.4 5.5-1.3 7.5s-2.1 3.6-3.6 4.8c-1.5 1.2-3.3 2-5.4 2.5-2 .5-4.2.7-6.5.7h-8.2v24.8h-7.2v-56.3h15.9c2.3 0 4.4.2 6.4.7 2 .5 3.7 1.3 5.2 2.4 1.5 1.2 2.6 2.8 3.5 4.9.9 2.1 1.2 4.7 1.2 8zm-7.2-.5c0-1.5-.2-2.7-.5-3.8-.3-1-.8-1.9-1.3-2.6-.5-.7-1.2-1.2-1.8-1.6-.6-.4-1.4-.7-2.1-.9-.7-.2-1.4-.3-2.1-.4-.7-.1-1.3-.1-1.8-.1h-8.2v19h5.4c.9 0 1.8 0 2.8-.1 1 0 1.9-.2 2.8-.3.9-.2 1.8-.5 2.6-.9s1.5-1 2.2-1.7c.6-.7 1.1-1.6 1.5-2.7.4-.9.5-2.3.5-3.9z" id="path77"/><path d="M547.9 434.2c-.6 0-1.2-.1-1.6-.1-2.8 0-4.9.7-6.5 2.2-1.5 1.5-2.3 3.6-2.3 6.3v24.7h-6.7V433l-.2-5.1h6.7v6.1c.5-1.3 1.1-2.3 1.7-3.2.6-.9 1.3-1.5 2.1-2s1.7-.9 2.8-1.1c1.1-.2 2.4-.3 3.9-.3h.9c.4 0 .6.1.8.2v6.6c-.5.1-1 .1-1.6 0z" id="path79"/><path d="M562.5 449.8v2.8c0 1 .1 2 .3 3 .2 1 .4 1.9.7 2.8.3.9.7 1.7 1.3 2.4.6.7 1.3 1.2 2.1 1.7.9.4 1.9.6 3.2.6 4.3 0 6.7-2.5 7.2-7.6h7c-.2 8.6-4.9 12.9-14.1 12.9-2.3 0-4.3-.3-5.9-.8-1.6-.5-3-1.3-4.1-2.2-1.1-.9-1.9-2.1-2.6-3.4-.6-1.3-1.1-2.8-1.4-4.3-.3-1.6-.5-3.3-.6-5.1-.1-1.8-.1-3.6-.1-5.6 0-3.6.3-6.6.8-9.2.5-2.5 1.4-4.6 2.6-6.2 1.2-1.6 2.7-2.8 4.5-3.5 1.8-.7 4.1-1.1 6.7-1.1 3.1 0 5.6.5 7.5 1.4 1.9.9 3.4 2.2 4.4 3.9 1.1 1.7 1.8 3.7 2.1 6 .4 2.3.5 4.8.5 7.5v4zm15.4-5.7c0-1.4-.1-2.8-.2-4.2-.2-1.4-.5-2.7-1.1-3.8-.5-1.1-1.3-2.1-2.4-2.8-1.1-.7-2.4-1.1-4.1-1.1-1.2 0-2.2.2-3 .6-.8.4-1.5.9-2.1 1.6-.6.7-1 1.4-1.4 2.3-.3.9-.6 1.8-.8 2.7-.2 1-.3 1.9-.3 2.9-.1 1-.1 1.9-.1 2.7h15.4v-.9z" id="path81"/><path d="M622 460c-.6 1.7-1.4 3.2-2.6 4.4-1.2 1.2-2.6 2.2-4.2 2.9-1.6.7-3.6 1-5.8 1-2.1 0-3.9-.3-5.4-.8-1.5-.5-2.8-1.2-3.8-2.2-1-1-1.9-2-2.5-3.3-.6-1.3-1.1-2.7-1.4-4.2-.3-1.5-.6-3.1-.7-4.7-.1-1.6-.2-3.3-.2-5 0-3.9.3-7.1.8-9.8.5-2.7 1.3-4.8 2.5-6.4 1.2-1.6 2.7-2.8 4.6-3.5 1.9-.7 4.2-1.1 7-1.1 4 0 7.1 1.1 9.2 3.2 2.1 2.1 3.1 5.2 3.1 9.2v1.1H616c0-2.9-.5-5-1.5-6.3-1-1.3-2.6-2-4.7-2-1.7 0-3 .4-4 1.2-1 .8-1.8 1.9-2.3 3.3-.5 1.4-.9 3-1.1 4.9-.2 1.9-.3 3.8-.3 5.9 0 5.2.6 9 1.8 11.4 1.2 2.4 3 3.6 5.6 3.6 1.3 0 2.3-.2 3.2-.7.9-.5 1.6-1.1 2.1-1.9.5-.8.9-1.7 1.1-2.7.2-1 .3-2.1.3-3.2h6.7c0 2.1-.3 4-.9 5.7z" id="path83"/><path d="M633.8 418v-6.9h7.2v6.9zm.2 49.5v-39.4h6.7v39.4z" id="path85"/><path d="M677 457c0 3.6-1.2 6.4-3.6 8.3-2.4 1.9-5.8 2.9-10.2 2.9-4.4 0-7.8-1-10.1-3s-3.4-5-3.4-8.9v-.7h6.9v.7c0 4.5 2.2 6.8 6.7 6.8 2.3 0 4-.5 5.3-1.5 1.3-1 1.9-2.4 1.9-4.1 0-1.1-.3-2.1-.8-2.9-.5-.8-1.4-1.5-2.6-2.1l-9.9-5.1c-2.3-1.2-3.9-2.5-4.9-4-1-1.5-1.5-3.2-1.5-5.2s.4-3.6 1.1-5c.7-1.4 1.7-2.5 3-3.3 1.3-.8 2.7-1.5 4.3-1.8 1.6-.3 3.3-.6 5-.6 4 0 7.1.9 9.3 2.6 2.2 1.7 3.3 4.4 3.3 7.8v.8h-6.6v-.3-.2c0-1.9-.6-3.4-1.7-4.4-1.1-1-2.8-1.5-4.9-1.5-2 0-3.5.5-4.6 1.4-1.1.9-1.6 2.2-1.6 3.8 0 .6.1 1.1.2 1.5.1.4.4.9.8 1.3s.9.8 1.6 1.3c.7.4 1.5.9 2.6 1.4l8.4 4.2c3.9 2.1 6 5.3 6 9.8z" id="path87"/><path d="M685.7 418v-6.9h7.2v6.9zm.2 49.5v-39.4h6.7v39.4z" id="path89"/><path d="M732.4 448.1c0 2.9-.2 5.6-.5 8.1s-1.1 4.6-2.1 6.5c-1 1.9-2.6 3.3-4.6 4.3-2 1.1-4.7 1.6-8.1 1.6-2.3 0-4.2-.3-5.8-.8-1.6-.5-3-1.2-4-2.2-1-1-1.9-2-2.6-3.3-.7-1.3-1.1-2.7-1.5-4.3-.3-1.5-.6-3.2-.6-5-.1-1.8-.1-3.6-.1-5.5 0-2.9.2-5.6.5-8.1s1-4.7 2-6.6c1-1.9 2.5-3.3 4.5-4.4 2-1.1 4.6-1.6 8-1.6 2.3 0 4.2.2 5.9.7 1.6.5 3 1.2 4.1 2.1 1.1.9 2 2 2.7 3.3.7 1.3 1.2 2.7 1.5 4.3.3 1.6.6 3.3.7 5.1v5.8zm-6.8-1.8v-3.1c0-1.1-.1-2.1-.3-3.2-.2-1-.4-2-.7-3-.3-1-.8-1.8-1.4-2.5-.6-.7-1.3-1.3-2.2-1.7-.9-.4-2-.6-3.3-.6-1.4 0-2.6.2-3.5.7-.9.5-1.7 1.1-2.3 1.8-.6.8-1.1 1.7-1.4 2.7-.3 1-.6 2.1-.7 3.2-.1 1.1-.2 2.3-.2 3.4V451.2c0 1.3.1 2.5.2 3.7.1 1.2.4 2.3.7 3.3.3 1 .8 1.9 1.4 2.6.6.7 1.4 1.3 2.3 1.7.9.4 2.1.6 3.4.6 1.3 0 2.5-.2 3.5-.7 1-.5 1.7-1.1 2.3-1.9.6-.8 1.1-1.7 1.4-2.8.3-1.1.6-2.3.7-3.5.1-1.3.2-2.6.2-3.9-.1-1.4-.1-2.7-.1-4z" id="path91"/><path d="M763.8 467.5v-26.1c0-1.1-.1-2.2-.2-3.3-.1-1.1-.4-2-.9-2.8-.5-.8-1.1-1.5-2-2-.9-.5-2-.8-3.4-.8-1.5 0-2.7.3-3.7.8s-1.8 1.2-2.5 2.1c-.7.9-1.1 1.9-1.4 3.1-.3 1.2-.4 2.4-.4 3.7v25.3h-6.7v-34.3l-.2-5.1h6.8v5.1c.6-1 1.2-1.9 1.9-2.7.7-.8 1.5-1.3 2.3-1.8.8-.5 1.8-.8 2.8-1 1-.2 2.2-.3 3.5-.3 2.2 0 4 .3 5.4 1 1.4.7 2.5 1.6 3.3 2.7.8 1.1 1.3 2.5 1.6 4.1.3 1.6.4 3.3.4 5.2v27.2h-6.6z" id="path93"/><path d="M844.8 467.5v-50l-15.9 50h-6.7l-15.7-50v50h-6.6v-56.3h11.6l14.3 47.3 14.4-47.3h11.5v56.3z" id="path95"/><path d="M870.1 449.8v2.8c0 1 .1 2 .3 3 .2 1 .4 1.9.7 2.8.3.9.7 1.7 1.3 2.4.6.7 1.3 1.2 2.1 1.7.9.4 1.9.6 3.2.6 4.3 0 6.7-2.5 7.2-7.6h7c-.2 8.6-4.9 12.9-14.1 12.9-2.3 0-4.3-.3-5.9-.8-1.6-.5-3-1.3-4.1-2.2-1.1-.9-1.9-2.1-2.6-3.4-.7-1.3-1.1-2.8-1.4-4.3-.3-1.5-.5-3.3-.6-5.1-.1-1.8-.1-3.6-.1-5.6 0-3.6.3-6.6.8-9.2.5-2.5 1.4-4.6 2.6-6.2 1.2-1.6 2.7-2.8 4.5-3.5 1.8-.7 4.1-1.1 6.7-1.1 3.1 0 5.6.5 7.5 1.4 1.9.9 3.4 2.2 4.4 3.9 1 1.7 1.8 3.7 2.1 6 .4 2.3.5 4.8.5 7.5v4zm15.4-5.7c0-1.4-.1-2.8-.2-4.2-.2-1.4-.5-2.7-1.1-3.8-.5-1.1-1.3-2.1-2.4-2.8-1-.7-2.4-1.1-4.1-1.1-1.2 0-2.2.2-3 .6-.8.4-1.5.9-2.1 1.6-.6.7-1 1.4-1.4 2.3-.3.9-.6 1.8-.8 2.7-.2 1-.3 1.9-.3 2.9s-.1 1.9-.1 2.7h15.4v-.9z" id="path97"/><path d="M916 467.7c-1 .1-2.1.1-3.1.1-1.4 0-2.7-.1-3.8-.3-1.1-.2-2-.6-2.8-1.1-.8-.5-1.3-1.3-1.7-2.3-.4-1-.6-2.3-.6-3.8v-27.1h-6.6v-5.1h6.6v-7.6l6.6-2.9v10.5h8.3v5.1h-8.3v23.3c0 1.1.1 2 .2 2.8.1.8.4 1.4.8 1.9s1 .9 1.7 1.2c.7.3 1.7.4 3 .4.5 0 1 0 1.4-.1.4 0 .9-.1 1.4-.2v4.9c-1.1.1-2.1.3-3.1.3z" id="path99"/><path d="M945.3 467.5l-.3-5.7h-.2c-1 2.3-2.3 4-3.9 5-1.6 1.1-3.7 1.6-6.2 1.6-3.5 0-6.1-1-7.9-3.1-1.8-2.1-2.8-5.1-2.8-9 0-2.3.3-4.3 1-6 .7-1.7 1.7-3 3.1-4.1 1.4-1.1 3.3-1.8 5.5-2.3 2.2-.5 5-.7 8.1-.7h2.9v-2.5c0-.8 0-1.6-.1-2.6s-.3-1.9-.7-2.8c-.4-.9-1-1.6-1.9-2.2-.9-.6-2.1-.9-3.8-.9-2 0-3.6.5-4.7 1.6s-1.7 2.6-1.7 4.5v1H925c.1-4.1 1.2-7.1 3.4-9 2.2-2 5.5-2.9 10-2.9 2 0 3.8.2 5.4.7 1.6.4 2.9 1.1 4 2.1s1.9 2.2 2.5 3.7c.6 1.5.9 3.3.9 5.5v20.3c0 1.2.1 2.5.2 4 .1 1.4.3 2.8.6 4h-6.7zm-.5-17v-1c0-.4 0-.9-.1-1.6-.6-.1-1-.1-1.2-.1h-.8c-1.5 0-3 .1-4.5.2s-2.8.5-3.9 1c-1.2.5-2.1 1.3-2.8 2.4-.7 1.1-1.1 2.5-1.1 4.4 0 2.3.6 4 1.7 5.3 1.1 1.3 2.7 1.9 4.6 1.9 1.7 0 3-.4 4-1.2 1-.8 1.9-1.9 2.4-3.1.5-1.2 1-2.6 1.2-4.1.2-1.5.5-2.8.5-4.1z" id="path101"/><path d="M963.2 467.5v-56.3h6.7v56.3z" id="path103"/><path d="M1027.7 464.2c-2.8 2.8-7.1 4.2-12.7 4.2-2.8 0-5.2-.4-7.1-1.2-1.9-.8-3.5-1.9-4.7-3.2-1.2-1.3-2.2-2.9-2.9-4.7-.7-1.8-1.2-3.7-1.5-5.8-.3-2.1-.5-4.1-.5-6.3s-.1-4.3-.1-6.3v-7.8c0-2.1.1-4.2.3-6.1.2-1.9.5-3.8 1-5.4.5-1.6 1.1-3.2 2-4.5.9-1.3 1.9-2.5 3.3-3.5 1.3-1 2.9-1.7 4.8-2.2 1.9-.5 4.1-.8 6.7-.8 5.1 0 8.8 1.2 11.3 3.7s3.7 6.2 3.7 11.3v1.6h-7.5v-.9c0-1.5-.1-2.8-.4-4-.2-1.2-.7-2.2-1.3-3-.6-.8-1.4-1.5-2.5-1.9-1.1-.4-2.4-.7-4-.7-1.7 0-3.1.2-4.3.7-1.2.5-2.1 1.1-2.9 1.9-.8.8-1.3 1.8-1.7 2.9-.4 1.1-.7 2.3-.9 3.5-.2 1.3-.3 2.6-.3 3.9v16c0 3 .2 5.5.5 7.7s.9 3.8 1.7 5.1c.8 1.3 1.8 2.3 3 2.9 1.2.6 2.7.9 4.4.9 3.1 0 5.4-1 7-3 1.6-2 2.4-4.9 2.4-8.9h7.4v1.1c0 5.8-1.4 10-4.2 12.8z" id="path105"/><path d="M1070.5 448.1c0 2.9-.2 5.6-.5 8.1s-1.1 4.6-2.1 6.5c-1 1.9-2.6 3.3-4.6 4.3-2 1.1-4.7 1.6-8.1 1.6-2.3 0-4.2-.3-5.8-.8-1.6-.5-3-1.2-4-2.2-1-1-1.9-2-2.6-3.3-.7-1.3-1.1-2.7-1.5-4.3-.3-1.5-.6-3.2-.6-5-.1-1.8-.1-3.6-.1-5.5 0-2.9.2-5.6.5-8.1s1-4.7 2-6.6c1-1.9 2.5-3.3 4.5-4.4 2-1.1 4.6-1.6 8-1.6 2.3 0 4.2.2 5.9.7 1.6.5 3 1.2 4.1 2.1 1.1.9 2 2 2.7 3.3.7 1.3 1.2 2.7 1.5 4.3.3 1.6.6 3.3.7 5.1-.1 1.9 0 3.8 0 5.8zm-6.9-1.8v-3.1c0-1.1-.1-2.1-.3-3.2-.2-1-.4-2-.7-3-.3-1-.8-1.8-1.4-2.5-.6-.7-1.3-1.3-2.2-1.7-.9-.4-2-.6-3.3-.6-1.4 0-2.6.2-3.5.7-.9.5-1.7 1.1-2.3 1.8-.6.8-1.1 1.7-1.4 2.7-.3 1-.6 2.1-.7 3.2-.1 1.1-.2 2.3-.2 3.4V451.2c0 1.3.1 2.5.2 3.7.1 1.2.4 2.3.7 3.3.3 1 .8 1.9 1.4 2.6.6.7 1.4 1.3 2.3 1.7.9.4 2.1.6 3.4.6 1.3 0 2.5-.2 3.5-.7 1-.5 1.7-1.1 2.3-1.9.6-.8 1.1-1.7 1.4-2.8.3-1.1.6-2.3.7-3.5.1-1.3.2-2.6.2-3.9-.1-1.4-.1-2.7-.1-4z" id="path107"/><path d="M1119.4 467.5v-28.6c0-2-.5-3.6-1.5-4.8-1-1.1-2.6-1.7-4.9-1.7-1.4 0-2.5.2-3.4.7-.9.5-1.5 1.1-2 1.9-.5.8-.8 1.7-1 2.8-.2 1.1-.2 2.2-.2 3.4v26.4h-6.6v-27c0-1-.1-2-.2-2.9-.1-.9-.4-1.8-.8-2.6-.4-.7-1-1.4-1.8-1.8-.8-.4-1.8-.7-3-.7-1.5 0-2.7.2-3.6.7-.9.5-1.7 1.1-2.2 1.9-.5.8-.9 1.7-1.1 2.8-.2 1.1-.3 2.2-.3 3.4v26.3h-6.7v-34.3l-.2-5.1h6.6v4.9c.9-1.9 2.1-3.3 3.8-4.3 1.7-1 3.6-1.5 5.9-1.5 1 0 2 .1 2.9.3 1 .2 1.8.5 2.7.9.9.4 1.6.9 2.2 1.6.6.7 1.2 1.5 1.5 2.4 1.1-1.9 2.5-3.3 4.2-4 1.7-.7 3.7-1.1 5.9-1.1 3.3 0 5.8.9 7.6 2.8 1.8 1.9 2.7 4.4 2.7 7.8v29.7h-6.5z" id="path109"/><path d="M1165.8 446.6c0 1.6 0 3.3-.1 5-.1 1.7-.2 3.4-.4 5s-.6 3.1-1.1 4.6c-.5 1.5-1.3 2.7-2.2 3.8-1 1.1-2.2 1.9-3.6 2.6-1.4.6-3.2.9-5.3.9-3.8 0-6.7-1.6-8.7-4.8v18.9h-6.8v-54.3h6.7v4.8c1-1.9 2.2-3.3 3.7-4.2 1.4-.9 3.1-1.3 5.1-1.3 1.9 0 3.5.3 4.8.8 1.3.5 2.5 1.2 3.5 2.1 1 .9 1.7 2 2.3 3.2.6 1.2 1.1 2.5 1.4 4 .3 1.4.6 2.9.7 4.5-.1 1.2 0 2.8 0 4.4zm-6.6-.7c0-.9 0-1.9-.1-2.9l-.3-3c-.2-1-.4-1.9-.8-2.8-.4-.9-.8-1.6-1.4-2.3-.6-.7-1.3-1.2-2.2-1.6-.9-.4-1.9-.6-3.1-.6-1.3 0-2.4.3-3.3.8-.9.5-1.6 1.3-2.1 2.2-.5.9-1 1.9-1.2 3-.2 1.1-.5 2.3-.6 3.5-.1 1.2-.2 2.4-.2 3.5v3.1c0 .9 0 1.9.1 3 0 1.1.1 2.1.3 3.2.2 1.1.4 2.1.7 3.1.3 1 .8 1.8 1.4 2.6.6.8 1.3 1.4 2.2 1.8.9.4 1.9.7 3.2.7 1.4 0 2.5-.3 3.4-.9.9-.6 1.7-1.4 2.2-2.4.6-1 1-2.1 1.3-3.3.3-1.2.5-2.5.6-3.8.1-1.3.1-2.5.1-3.8 0-1.3-.2-2.2-.2-3.1z" id="path111"/><path d="M1204.8 448.1c0 2.9-.2 5.6-.5 8.1s-1.1 4.6-2.1 6.5c-1 1.9-2.6 3.3-4.6 4.3-2 1.1-4.7 1.6-8.1 1.6-2.3 0-4.2-.3-5.8-.8-1.6-.5-3-1.2-4-2.2-1-1-1.9-2-2.6-3.3-.7-1.3-1.1-2.7-1.5-4.3-.3-1.5-.6-3.2-.6-5-.1-1.8-.1-3.6-.1-5.5 0-2.9.2-5.6.5-8.1s1-4.7 2-6.6c1-1.9 2.5-3.3 4.5-4.4 2-1.1 4.6-1.6 8-1.6 2.3 0 4.2.2 5.9.7 1.6.5 3 1.2 4.1 2.1 1.1.9 2 2 2.7 3.3.7 1.3 1.2 2.7 1.5 4.3.3 1.6.6 3.3.7 5.1-.1 1.9 0 3.8 0 5.8zm-6.9-1.8v-3.1c0-1.1-.1-2.1-.3-3.2-.2-1-.4-2-.7-3-.3-1-.8-1.8-1.4-2.5-.6-.7-1.3-1.3-2.2-1.7-.9-.4-2-.6-3.3-.6-1.4 0-2.6.2-3.5.7-.9.5-1.7 1.1-2.3 1.8-.6.8-1.1 1.7-1.4 2.7-.3 1-.6 2.1-.7 3.2-.1 1.1-.2 2.3-.2 3.4V451.2c0 1.3.1 2.5.2 3.7.1 1.2.4 2.3.7 3.3.3 1 .8 1.9 1.4 2.6.6.7 1.4 1.3 2.3 1.7.9.4 2.1.6 3.4.6 1.3 0 2.5-.2 3.5-.7 1-.5 1.7-1.1 2.3-1.9.6-.8 1.1-1.7 1.4-2.8.3-1.1.6-2.3.7-3.5.1-1.3.2-2.6.2-3.9-.1-1.4-.1-2.7-.1-4z" id="path113"/><path d="M1236.2 467.5v-26.1c0-1.1-.1-2.2-.2-3.3-.1-1.1-.4-2-.9-2.8-.5-.8-1.1-1.5-2-2-.9-.5-2-.8-3.4-.8-1.5 0-2.7.3-3.7.8s-1.8 1.2-2.5 2.1c-.7.9-1.1 1.9-1.4 3.1-.3 1.2-.4 2.4-.4 3.7v25.3h-6.7v-34.3l-.2-5.1h6.8v5.1c.6-1 1.2-1.9 1.9-2.7.7-.8 1.5-1.3 2.3-1.8.8-.5 1.8-.8 2.8-1 1-.2 2.2-.3 3.5-.3 2.2 0 4 .3 5.4 1 1.4.7 2.5 1.6 3.3 2.7.8 1.1 1.3 2.5 1.6 4.1.3 1.6.4 3.3.4 5.2v27.2h-6.6z" id="path115"/><path d="M1260.2 449.8v2.8c0 1 .1 2 .3 3 .2 1 .4 1.9.7 2.8.3.9.7 1.7 1.3 2.4.6.7 1.3 1.2 2.1 1.7.9.4 1.9.6 3.2.6 4.3 0 6.7-2.5 7.2-7.6h7c-.2 8.6-4.9 12.9-14.1 12.9-2.3 0-4.3-.3-5.9-.8-1.6-.5-3-1.3-4.1-2.2-1.1-.9-1.9-2.1-2.6-3.4-.7-1.3-1.1-2.8-1.4-4.3-.3-1.5-.5-3.3-.6-5.1-.1-1.8-.1-3.6-.1-5.6 0-3.6.3-6.6.8-9.2.5-2.5 1.4-4.6 2.6-6.2 1.2-1.6 2.7-2.8 4.5-3.5 1.8-.7 4.1-1.1 6.7-1.1 3.1 0 5.6.5 7.5 1.4 1.9.9 3.4 2.2 4.4 3.9 1 1.7 1.8 3.7 2.1 6 .4 2.3.5 4.8.5 7.5v4zm15.3-5.7c0-1.4-.1-2.8-.2-4.2-.2-1.4-.5-2.7-1.1-3.8-.5-1.1-1.3-2.1-2.4-2.8-1-.7-2.4-1.1-4.1-1.1-1.2 0-2.2.2-3 .6-.8.4-1.5.9-2.1 1.6-.6.7-1 1.4-1.4 2.3-.3.9-.6 1.8-.8 2.7-.2 1-.3 1.9-.3 2.9s-.1 1.9-.1 2.7h15.4v-.9z" id="path117"/><path d="M1314.2 467.5v-26.1c0-1.1-.1-2.2-.2-3.3-.1-1.1-.4-2-.9-2.8-.5-.8-1.1-1.5-2-2-.9-.5-2-.8-3.4-.8-1.5 0-2.7.3-3.7.8s-1.8 1.2-2.5 2.1c-.7.9-1.1 1.9-1.4 3.1-.3 1.2-.4 2.4-.4 3.7v25.3h-6.7v-34.3l-.2-5.1h6.8v5.1c.6-1 1.2-1.9 1.9-2.7.7-.8 1.5-1.3 2.3-1.8.8-.5 1.8-.8 2.8-1 1-.2 2.2-.3 3.5-.3 2.2 0 4 .3 5.4 1 1.4.7 2.5 1.6 3.3 2.7.8 1.1 1.3 2.5 1.6 4.1.3 1.6.4 3.3.4 5.2v27.2h-6.6z" id="path119"/><path d="M1345 467.7c-1 .1-2.1.1-3.1.1-1.4 0-2.7-.1-3.8-.3-1.1-.2-2-.6-2.8-1.1-.8-.5-1.3-1.3-1.7-2.3-.4-1-.6-2.3-.6-3.8v-27.1h-6.6v-5.1h6.6v-7.6l6.6-2.9v10.5h8.3v5.1h-8.3v23.3c0 1.1.1 2 .2 2.8.1.8.4 1.4.8 1.9s1 .9 1.7 1.2c.7.3 1.7.4 3 .4.5 0 1 0 1.4-.1.4 0 .9-.1 1.4-.2v4.9c-1.1.1-2.1.3-3.1.3z" id="path121"/><path d="M1378.9 457c0 3.6-1.2 6.4-3.6 8.3-2.4 1.9-5.8 2.9-10.2 2.9-4.4 0-7.8-1-10.1-3s-3.4-5-3.4-8.9v-.7h6.9v.7c0 4.5 2.2 6.8 6.7 6.8 2.3 0 4-.5 5.3-1.5 1.3-1 1.9-2.4 1.9-4.1 0-1.1-.3-2.1-.8-2.9-.5-.8-1.4-1.5-2.6-2.1l-9.9-5.1c-2.3-1.2-3.9-2.5-4.9-4-1-1.5-1.5-3.2-1.5-5.2s.4-3.6 1.1-5c.7-1.4 1.7-2.5 3-3.3 1.3-.8 2.7-1.5 4.3-1.8 1.6-.3 3.3-.6 5-.6 4 0 7.1.9 9.3 2.6 2.2 1.7 3.3 4.4 3.3 7.8v.8h-6.6v-.3-.2c0-1.9-.6-3.4-1.7-4.4-1.1-1-2.8-1.5-4.9-1.5-2 0-3.5.5-4.6 1.4-1.1.9-1.6 2.2-1.6 3.8 0 .6.1 1.1.2 1.5.1.4.4.9.8 1.3s.9.8 1.6 1.3c.7.4 1.5.9 2.6 1.4l8.4 4.2c4 2.1 6 5.3 6 9.8z" id="path123"/></g></g></svg>