<?xml version="1.0" encoding="UTF-8" standalone="no"?>
<!-- Created with Inkscape (http://www.inkscape.org/) -->

<svg
   xmlns:dc="http://purl.org/dc/elements/1.1/"
   xmlns:cc="http://creativecommons.org/ns#"
   xmlns:rdf="http://www.w3.org/1999/02/22-rdf-syntax-ns#"
   xmlns:svg="http://www.w3.org/2000/svg"
   xmlns="http://www.w3.org/2000/svg"
   version="1.1"
   width="538.58264"
   height="538.58264"
   id="svg65215">
  <defs
     id="defs65217">
    <clipPath
       id="clipPath65007">
      <path
         d="m 409.732,787.326 87.038,0 0,-77.957 -87.038,0 0,77.957 z"
         id="path65009" />
    </clipPath>
  </defs>
  <metadata
     id="metadata65220">
    <rdf:RDF>
      <cc:Work
         rdf:about="">
        <dc:format>image/svg+xml</dc:format>
        <dc:type
           rdf:resource="http://purl.org/dc/dcmitype/StillImage" />
        <dc:title></dc:title>
      </cc:Work>
    </rdf:RDF>
  </metadata>
  <g
     transform="translate(-141.18225,7.2631796)"
     id="layer1">
    <g
       transform="matrix(5.9638248,0,0,5.9638248,-697.09392,-2640.2547)"
       id="g65248">
      <path
         d="m 161.86054,526.16165 5.69125,0 0,-32.58 4.3575,32.58 3.15,0 4.11375,-32.58 0,32.58 5.57375,0 0,-43.60875 -8.235,0 -3.0275,26.36375 -3.23625,-26.3025 -8.3875,-0.0612 0,43.60875 z"
         id="path64995"
         style="fill:#234e9b;fill-opacity:1;fill-rule:nonzero;stroke:#234e9b;stroke-width:0.68125004;stroke-linecap:square;stroke-linejoin:miter;stroke-miterlimit:6;stroke-opacity:1;stroke-dasharray:none" />
      <path
         d="m 158.10679,526.16165 0,-7.24875 -5.20875,0 0,-11.855 4.23875,0 0,-7.11625 -4.23875,0 0,-9.485 5.20875,0 0,-7.90375 -11.74625,0 -0.002,43.60875 11.74875,0 z"
         id="path64997"
         style="fill:#234e9b;fill-opacity:1;fill-rule:nonzero;stroke:#234e9b;stroke-width:0.68125004;stroke-linecap:square;stroke-linejoin:miter;stroke-miterlimit:6;stroke-opacity:1;stroke-dasharray:none" />
      <path
         d="m 224.47179,488.4279 c -0.0937,-2.4525 -2.60375,-7.0375 -8.51375,-7.11125 -2.0575,0.08 -5.295,0.39125 -7.1725,5.69625 -0.675,2.15625 -0.7275,6.56875 -0.7275,16.2 0,4.6175 0,9.2375 0,13.85375 0,6.1025 2.14125,9.0625 6.765,9.095 0.7625,0.006 1.52625,0 2.29,0 1.93375,0 1.965,-0.8175 2.595,-2.20375 0.47,0.73625 0.9375,1.4675 1.40375,2.20375 l 3.8625,0 0,-22.94875 -7.86125,0 0,5.70375 1.42875,0 0,8.15 c 0,2.52 0,3.8325 -1.825,3.8325 -1.89375,0 -1.89375,-1.5625 -1.89375,-3.8325 l 0,-28.63875 c 0.045,-1.3825 0.71875,-1.45875 2.29,-1.415 0.8525,0.0238 1.42875,0.71625 1.42875,1.415 l 0,9.0125 6.4325,0.0562 -0.5025,-9.06875 z"
         id="path64999"
         style="fill:#234e9b;fill-opacity:1;fill-rule:evenodd;stroke:#234e9b;stroke-width:0.68125004;stroke-linecap:square;stroke-linejoin:miter;stroke-miterlimit:6;stroke-opacity:1;stroke-dasharray:none" />
      <path
         d="m 196.53679,517.06665 1.89625,0 0.6025,9.095 6.295,0 -3.6325,-43.55375 -5.16125,0 1.5175,29.74375 -1.5175,0 -0.045,4.715 0.045,0 z"
         id="path65001"
         style="fill:#234e9b;fill-opacity:1;fill-rule:evenodd;stroke:#234e9b;stroke-width:0.68125004;stroke-linecap:square;stroke-linejoin:miter;stroke-miterlimit:6;stroke-opacity:1;stroke-dasharray:none" />
      <g
         transform="matrix(1.25,0,0,-1.25,-378.17696,1423.3729)"
         id="g65003">
        <g
           clip-path="url(#clipPath65007)"
           id="g65005">
          <path
             d="m 452.857,717.769 4.842,0 0.545,7.276 1.491,0 0.036,3.772 -1.224,0 1.224,23.593 0,-0.007 0,0.209 -4.3,0 -2.614,-34.843 z"
             id="path65011"
             style="fill:#234e9b;fill-opacity:1;fill-rule:evenodd;stroke:#234e9b;stroke-width:0.54500002;stroke-linecap:square;stroke-linejoin:miter;stroke-miterlimit:6;stroke-opacity:1;stroke-dasharray:none" />
          <path
             d="m 485.853,742.591 0,-27.957 -69.488,0 0,69.488 69.481,0.004 0.015,-41.774 -0.015,41.774 -69.481,-0.004 0,-69.488 69.488,0 0,27.957 z"
             id="path65013"
             style="fill:none;stroke:#234e9b;stroke-width:1.79999995;stroke-linecap:square;stroke-linejoin:miter;stroke-miterlimit:6;stroke-opacity:1;stroke-dasharray:none" />
        </g>
      </g>
    </g>
  </g>
</svg>
